<?xml version="1.0" encoding="UTF-8" standalone="no"?><!DOCTYPE svg PUBLIC "-//W3C//DTD SVG 1.1//EN" "http://www.w3.org/Graphics/SVG/1.1/DTD/svg11.dtd"><svg width="100%" height="100%" viewBox="0 0 800 800" version="1.1" xmlns="http://www.w3.org/2000/svg" xmlns:xlink="http://www.w3.org/1999/xlink" xml:space="preserve" xmlns:serif="http://www.serif.com/" style="fill-rule:evenodd;clip-rule:evenodd;stroke-linecap:round;stroke-miterlimit:2;"><g><path d="M281.25,756.25l-89.873,0c-43.533,0 -78.877,-35.344 -78.877,-78.877l0,-554.746c0,-43.533 35.344,-78.877 78.877,-78.877l329.372,-0c6.717,-0 13.15,2.702 17.852,7.498c26.331,26.858 115.747,118.062 141.751,144.586c4.582,4.673 7.148,10.957 7.148,17.502c0,68.973 0,464.037 0,464.037c0,43.533 -35.344,78.877 -78.877,78.877l-77.373,-0" style="fill:none;stroke:#4080bf;stroke-width:50px;"/><path d="M400,765.625l6.25,-421.875" style="fill:none;stroke:#4080bf;stroke-width:50px;"/><path d="M562.5,500l-156.25,-156.25" style="fill:none;stroke:#4080bf;stroke-width:50px;"/><path d="M250,500l156.25,-156.25" style="fill:none;stroke:#4080bf;stroke-width:50px;"/><path d="M531.25,56.25l-0,111.441c-0,9.398 3.733,18.411 10.378,25.056c6.645,6.645 15.658,10.378 25.056,10.378c42.565,-0 108.316,-0 108.316,-0" style="fill:none;stroke:#4080bf;stroke-width:50px;"/></g></svg>