<?xml version="1.0" encoding="UTF-8" standalone="no"?><!DOCTYPE svg PUBLIC "-//W3C//DTD SVG 1.1//EN" "http://www.w3.org/Graphics/SVG/1.1/DTD/svg11.dtd"><svg width="100%" height="100%" viewBox="0 0 192 192" version="1.1" xmlns="http://www.w3.org/2000/svg" xmlns:xlink="http://www.w3.org/1999/xlink" xml:space="preserve" xmlns:serif="http://www.serif.com/" style="fill-rule:evenodd;clip-rule:evenodd;stroke-linecap:round;stroke-miterlimit:2;"><g><path d="M146.07,181.5l-100.14,0c-10.448,0 -18.93,-8.482 -18.93,-18.93l0,-133.14c0,-10.448 8.482,-18.93 18.93,-18.93l79.05,0c1.612,-0 3.156,0.649 4.284,1.8c6.32,6.445 27.78,28.334 34.02,34.7c1.1,1.122 1.716,2.63 1.716,4.201c0,16.553 0,111.369 0,111.369c0,10.448 -8.482,18.93 -18.93,18.93Z" style="fill:none;stroke:#808080;stroke-width:12px;"/><g transform="matrix(120,0,0,120,131.039,151.113)"></g><text x="62.25px" y="151.113px" style="font-family:'ArialRoundedMTBold', 'Arial Rounded MT Bold', sans-serif;font-size:120px;fill:#d5d5d5;stroke:#808080;stroke-width:4px;stroke-linecap:butt;stroke-linejoin:round;">?</text><path d="M127.5,13.5l-0,26.746c-0,2.255 0.896,4.418 2.491,6.013c1.595,1.595 3.758,2.491 6.013,2.491c10.216,-0 25.996,-0 25.996,-0" style="fill:none;stroke:#808080;stroke-width:12px;"/></g></svg>