<?xml version="1.0" encoding="UTF-8" standalone="no"?><!DOCTYPE svg PUBLIC "-//W3C//DTD SVG 1.1//EN" "http://www.w3.org/Graphics/SVG/1.1/DTD/svg11.dtd"><svg width="100%" height="100%" viewBox="0 0 192 192" version="1.1" xmlns="http://www.w3.org/2000/svg" xmlns:xlink="http://www.w3.org/1999/xlink" xml:space="preserve" xmlns:serif="http://www.serif.com/" style="fill-rule:evenodd;clip-rule:evenodd;stroke-linecap:round;stroke-miterlimit:2;"><g id="Blank-Paper-Write" serif:id="Blank Paper Write"><path d="M141.875,171.281c-16.13,0 -90.818,0 -91.625,0c-6.213,0 -11.25,-5.037 -11.25,-11.25c-0,-27.901 -0,-100.036 -0,-127.937c0,-6.213 5.037,-11.25 11.25,-11.25c21.361,-0 66.758,-0 79.018,-0c1.99,-0 3.897,0.79 5.304,2.196c3.987,3.987 12.369,12.37 16.356,16.357c1.407,1.407 2.197,3.314 2.197,5.303l-0,115.331c0,2.984 -1.185,5.845 -3.295,7.955c-2.11,2.11 -4.971,3.295 -7.955,3.295Z" style="fill:none;stroke:#f00;stroke-width:8px;"/><path d="M128.625,24.594l0,9.5c0,6.213 5.037,11.25 11.25,11.25l9.5,-0" style="fill:none;stroke:#f00;stroke-width:8px;"/></g><circle cx="97.5" cy="60" r="18.75" style="fill:none;stroke:#f00;stroke-width:8px;"/><path d="M60,112.5c0,0 2.313,-30 37.5,-30c35.187,0 37.5,30 37.5,30" style="fill:none;stroke:#f00;stroke-width:8px;"/><path d="M127.5,126.563l0,20.624c0,5.692 -4.621,10.313 -10.313,10.313l-39.375,0c-5.691,0 -10.312,-4.621 -10.312,-10.313l0,-20.625c0,-5.691 4.621,-10.312 10.313,-10.312l39.375,-0c5.691,-0 10.312,4.621 10.312,10.312Z" style="fill:none;stroke:#f00;stroke-width:6px;"/><path d="M86.25,116.25l-0,-2.25c0,-4.971 4.029,-9 9,-9c1.482,0 3.018,0 4.5,0c4.971,0 9,4.029 9,9c0,1.322 0,2.25 0,2.25" style="fill:none;stroke:#f00;stroke-width:6px;"/><path d="M67.5,131.25l22.503,6.429" style="fill:none;stroke:#f00;stroke-width:4px;"/><path d="M127.5,131.25l-22.503,6.429" style="fill:none;stroke:#f00;stroke-width:4px;"/><path d="M105,137.813l0,5.624c0,1.553 -1.26,2.813 -2.813,2.813l-9.374,0c-1.553,0 -2.813,-1.26 -2.813,-2.813l0,-5.625c0,-1.552 1.26,-2.812 2.813,-2.812l9.374,0c1.553,0 2.813,1.26 2.813,2.813Z" style="fill:none;stroke:#f00;stroke-width:4px;"/></svg>