<?xml version="1.0" encoding="UTF-8" standalone="no"?><!DOCTYPE svg PUBLIC "-//W3C//DTD SVG 1.1//EN" "http://www.w3.org/Graphics/SVG/1.1/DTD/svg11.dtd"><svg width="100%" height="100%" viewBox="0 0 192 192" version="1.1" xmlns="http://www.w3.org/2000/svg" xmlns:xlink="http://www.w3.org/1999/xlink" xml:space="preserve" xmlns:serif="http://www.serif.com/" style="fill-rule:evenodd;clip-rule:evenodd;stroke-linecap:round;stroke-miterlimit:2;"><g id="Blank-Paper-Write" serif:id="Blank Paper Write"><path d="M141.875,171.281c-16.13,0 -90.818,0 -91.625,0c-6.213,0 -11.25,-5.037 -11.25,-11.25c-0,-27.901 -0,-100.036 -0,-127.937c0,-6.213 5.037,-11.25 11.25,-11.25c21.361,-0 66.758,-0 79.018,-0c1.99,-0 3.897,0.79 5.304,2.196c3.987,3.987 12.369,12.37 16.356,16.357c1.407,1.407 2.197,3.314 2.197,5.303l-0,115.331c0,2.984 -1.185,5.845 -3.295,7.955c-2.11,2.11 -4.971,3.295 -7.955,3.295Z" style="fill:none;stroke:#f00;stroke-width:8px;"/><path d="M128.625,24.594l0,9.5c0,6.213 5.037,11.25 11.25,11.25l9.5,-0" style="fill:none;stroke:#f00;stroke-width:8px;"/></g><circle cx="96" cy="66" r="18.75" style="fill:none;stroke:#f00;stroke-width:8px;"/><path d="M58.5,65.625c0,0 2.313,26.25 37.5,26.25c35.187,0 37.5,-26.25 37.5,-26.25" style="fill:none;stroke:#f00;stroke-width:8px;"/><circle cx="97.5" cy="129.375" r="24.375" style="fill:none;stroke:#f00;stroke-width:6px;"/><path d="M82.5,130.5l7.5,11.25l22.5,-22.5" style="fill:none;stroke:#f00;stroke-width:6px;stroke-linecap:butt;"/></svg>