<?xml version="1.0" encoding="UTF-8" standalone="no"?><!DOCTYPE svg PUBLIC "-//W3C//DTD SVG 1.1//EN" "http://www.w3.org/Graphics/SVG/1.1/DTD/svg11.dtd"><svg width="100%" height="100%" viewBox="0 0 768 768" version="1.1" xmlns="http://www.w3.org/2000/svg" xmlns:xlink="http://www.w3.org/1999/xlink" xml:space="preserve" xmlns:serif="http://www.serif.com/" style="fill-rule:evenodd;clip-rule:evenodd;stroke-linecap:round;stroke-linejoin:round;stroke-miterlimit:1.5;"><circle cx="240" cy="288" r="114" style="fill:#808080;"/><path d="M78,577.2c0,9.548 3.793,18.705 10.544,25.456c6.751,6.751 15.908,10.544 25.456,10.544l252,0c9.548,0 18.705,-3.793 25.456,-10.544c6.751,-6.751 10.544,-15.908 10.544,-25.456l-0,-97.2c-0,-39.765 -32.236,-72 -72,-72l-18,0c-24.6,0 -36.3,16.2 -72,16.2c-35.7,0 -47.4,-16.2 -72,-16.2l-18,0c-39.764,-0 -72,32.235 -72,72l0,97.2Z" style="fill:#808080;stroke:#000;stroke-width:0.75px;"/><circle cx="456" cy="285" r="30" style="fill:#808080;"/><circle cx="456" cy="360" r="30" style="fill:#808080;"/><circle cx="456" cy="435" r="30" style="fill:#808080;"/><path d="M670.5,262.5c12.426,0 22.5,10.074 22.5,22.5l0,0c-0,12.426 -10.074,22.5 -22.5,22.5l-135,0c-12.426,-0 -22.5,-10.074 -22.5,-22.5l-0,-0c0,-12.426 10.074,-22.5 22.5,-22.5l135,0Z" style="fill:#808080;"/><path d="M670.5,337.5c12.426,0 22.5,10.074 22.5,22.5l0,0c-0,12.426 -10.074,22.5 -22.5,22.5l-135,0c-12.426,-0 -22.5,-10.074 -22.5,-22.5l0,-0c0,-12.426 10.074,-22.5 22.5,-22.5l135,0Z" style="fill:#808080;"/><path d="M670.5,412.5c12.426,0 22.5,10.074 22.5,22.5l0,0c-0,12.426 -10.074,22.5 -22.5,22.5c-34.583,-0 -100.417,-0 -135,-0c-12.426,-0 -22.5,-10.074 -22.5,-22.5l-0,-0c0,-12.426 10.074,-22.5 22.5,-22.5l135,0Z" style="fill:#808080;"/><path d="M649.5,22.5c53.019,0 96,42.981 96,96l0,531c-0,53.019 -42.981,96 -96,96l-531,0c-53.019,-0 -96,-42.981 -96,-96l0,-531c0,-53.019 42.981,-96 96,-96l531,0Z" style="fill:none;stroke:#808080;stroke-width:40px;"/></svg>